<?xml version="1.0" encoding="UTF-8" standalone="no"?>
<svg
   version="1.1"
   viewBox="0 0 455 455"
   enable-background="new 0 0 455 455"
   id="svg7"
   sodipodi:docname="icon.svg"
   xml:space="preserve"
   inkscape:version="1.3.2 (091e20e, 2023-11-25, custom)"
   xmlns:inkscape="http://www.inkscape.org/namespaces/inkscape"
   xmlns:sodipodi="http://sodipodi.sourceforge.net/DTD/sodipodi-0.dtd"
   xmlns="http://www.w3.org/2000/svg"
   xmlns:svg="http://www.w3.org/2000/svg"><defs
     id="defs7" /><sodipodi:namedview
     id="namedview7"
     pagecolor="#ffffff"
     bordercolor="#000000"
     borderopacity="0.25"
     inkscape:showpageshadow="2"
     inkscape:pageopacity="0.0"
     inkscape:pagecheckerboard="0"
     inkscape:deskcolor="#d1d1d1"
     inkscape:zoom="2.5956044"
     inkscape:cx="227.30737"
     inkscape:cy="227.5"
     inkscape:window-width="3440"
     inkscape:window-height="1377"
     inkscape:window-x="-8"
     inkscape:window-y="-8"
     inkscape:window-maximized="1"
     inkscape:current-layer="svg7" /><path
     style="fill:none;stroke:#000000;stroke-linecap:round;stroke-linejoin:round;stroke-miterlimit:0;paint-order:fill markers stroke;stroke-width:6;stroke-dasharray:none"
     d="m 156.03302,97.087214 -45.84674,63.954276 75.89755,26.19814 45.84674,-63.18375 z"
     id="path8" /><path
     style="fill:none;stroke:#000000;stroke-width:6;stroke-linecap:round;stroke-linejoin:round;stroke-miterlimit:0;stroke-dasharray:none;paint-order:fill markers stroke"
     d="m 189.16596,84.758679 70.11854,22.730741 -0.38526,19.6486 -91.30822,-27.353939 z"
     id="path9" /><path
     style="fill:none;stroke:#000000;stroke-width:6;stroke-linecap:round;stroke-linejoin:round;stroke-miterlimit:0;stroke-dasharray:none;paint-order:fill markers stroke"
     d="m 321.31245,165.27942 16.95173,-1.92633 70.50381,23.116 11.17274,23.11601 -71.27435,72.81541 -47.3878,20.03387 -142.93396,-52.01101 7.70534,-29.28027 29.28027,-10.01694 18.10753,33.13294 12.71381,3.08214 z"
     id="path10" /><path
     style="fill:none;stroke:#000000;stroke-width:6;stroke-linecap:round;stroke-linejoin:round;stroke-miterlimit:0;stroke-dasharray:none;paint-order:fill markers stroke"
     d="m 135.22862,124.82642 -62.798476,42.7646 -32.747672,26.19814 -25.427603,44.30567 275.080441,106.33362 -0.38527,56.63421 62.79848,-29.66554 85.91448,-95.54615 3.4674,-47.77307 -19.6486,-20.03387 -11.55801,-20.8044 18.87807,15.0254 11.17274,26.19814 -18.4928,-21.18967 -70.88908,74.74174 13.48433,28.89501 -3.85266,52.39627 3.85266,-52.78154 -75.12701,34.28874 12.32854,-41.22354 49.6994,-21.18967 -50.46994,21.9602 -10.78746,39.68247 -0.38527,56.63421 L 35.059272,304.36071 17.337003,283.17104 14.640135,237.3243 40.838273,193.01863 Z"
     id="path11" /><path
     style="fill:none;stroke:#000000;stroke-width:6;stroke-linecap:round;stroke-linejoin:round;stroke-miterlimit:0;stroke-dasharray:none;paint-order:fill markers stroke"
     d="m 196.10076,212.28196 71.27435,-62.4132 -6.93481,-20.03387"
     id="path12" /><path
     style="fill:none;stroke:#000000;stroke-width:6;stroke-linecap:round;stroke-linejoin:round;stroke-miterlimit:0;stroke-dasharray:none;paint-order:fill markers stroke"
     d="m 260.4403,107.48942 11.55801,23.88653 30.43607,29.28027 1.54106,17.72227"
     id="path13" /><path
     style="fill:none;stroke:#000000;stroke-width:3;stroke-linecap:round;stroke-linejoin:round;stroke-miterlimit:0;stroke-dasharray:none;paint-order:fill markers stroke"
     d="M 16.181202,266.60457 290.49111,371.78239 362.53599,335.95258 439.9746,253.5055"
     id="path14" /><path
     style="fill:none;stroke:#000000;stroke-width:3;stroke-linecap:round;stroke-linejoin:round;stroke-miterlimit:0;stroke-dasharray:none;paint-order:fill markers stroke"
     d="m 58.560542,210.7409 -16.181202,29.28027 75.51228,30.0508 16.95173,-31.2066 z"
     id="path15" /><path
     style="fill:none;stroke:#000000;stroke-width:6;stroke-linecap:round;stroke-linejoin:round;stroke-miterlimit:0;stroke-dasharray:none;paint-order:fill markers stroke"
     d="M 61.642676,179.53429 165.66469,222.2989"
     id="path16" /><path
     style="fill:none;stroke:#000000;stroke-width:3;stroke-linecap:round;stroke-linejoin:round;stroke-miterlimit:0;stroke-dasharray:none;paint-order:fill markers stroke"
     d="m 132.91702,154.10669 v 0 l 35.05927,-45.46147"
     id="path18" /><path
     style="fill:none;stroke:#000000;stroke-width:3;stroke-linecap:round;stroke-linejoin:round;stroke-miterlimit:0;stroke-dasharray:none;paint-order:fill markers stroke"
     d="m 179.91956,171.44369 31.59187,-44.69094"
     id="path19" /><path
     style="fill:none;stroke:#000000;stroke-width:3;stroke-linecap:round;stroke-linejoin:round;stroke-miterlimit:0;stroke-dasharray:none;paint-order:fill markers stroke"
     d="m 252.73497,125.21169 -35.8298,56.6342 -29.66554,6.16427"
     id="path20" /></svg>
