<?xml version="1.0" encoding="UTF-8"?>
<svg width="64px" height="64px" viewBox="0 0 64 64" version="1.1" xmlns="http://www.w3.org/2000/svg" xmlns:xlink="http://www.w3.org/1999/xlink">
    <title>battery_charging_state</title>
    <g id="battery_charging_state" stroke="none" stroke-width="1" fill="none" fill-rule="evenodd">
        <path d="M27,12 C29.7614237,12 32,14.2385763 32,17 L32,51 C32,53.7614237 29.7614237,56 27,56 L13,56 C10.2385763,56 8,53.7614237 8,51 L8,17 C8,14.2385763 10.2385763,12 13,12 L27,12 Z M27,16 L13,16 C12.4477153,16 12,16.4477153 12,17 L12,51 C12,51.5522847 12.4477153,52 13,52 L27,52 C27.5522847,52 28,51.5522847 28,51 L28,17 C28,16.4477153 27.5522847,16 27,16 Z M23.7422117,23.9785297 C23.9001256,24.1110647 23.9605042,24.3269351 23.8942654,24.522165 L21.3568126,31.9995053 L25.1051874,32 C25.6574721,32 26.1051874,32.4477153 26.1051874,33 C26.1051874,33.2351402 26.0223265,33.4627599 25.8711616,33.6428712 L17.212211,43.9599188 C17.0346871,44.1714367 16.7193062,44.1989943 16.5077883,44.0214703 C16.3498744,43.8889353 16.2894958,43.6730649 16.3557346,43.477835 L18.8928126,35.9995053 L15.1448126,36 C14.5925279,36 14.1448126,35.5522847 14.1448126,35 C14.1448126,34.7648598 14.2276735,34.5372401 14.3788384,34.3571288 L23.037789,24.0400812 C23.2153129,23.8285633 23.5306938,23.8010057 23.7422117,23.9785297 Z M21,6 C23.1421954,6 24.8910789,7.68396847 24.9951047,9.80035966 L25,10 L15,10 C15,7.790861 16.790861,6 19,6 L21,6 Z M48,48 C48,52.418278 44.418278,56 40,56 L38,56 C36.8954305,56 36,55.1045695 36,54 C36,52.8954305 36.8954305,52 38,52 L40,52 C42.209139,52 44,50.209139 44,48 L44,36 C44,34.9456382 43.1841222,34.0818349 42.1492623,34.0054857 L42,34 L41.9983975,33.9587933 C40.6270728,33.8635727 39.8290925,33.6048563 39.0694629,33.1986019 C38.0916851,32.6756806 37.3243194,31.9083149 36.8013981,30.9305371 C36.2784768,29.9527593 36,28.9114413 36,26.6656409 L36,20.8458278 C36,19.5085497 36.1392384,19.0236203 36.4006991,18.5347314 C36.6621597,18.0458426 37.0458426,17.6621597 37.5347314,17.4006991 C37.9030234,17.2037344 38.2690683,17.0761305 38.9989466,17.0251621 L39,8 C39,6.8954305 39.8954305,6 41,6 C42.1045695,6 43,6.8954305 43,8 L43,17 L49,17 L49,8 C49,6.8954305 49.8954305,6 51,6 C52.1045695,6 53,6.8954305 53,8 L52.99912,17.0250273 C53.7302855,17.0759053 54.0966515,17.2035605 54.4652686,17.4006991 C54.9541574,17.6621597 55.3378403,18.0458426 55.5993009,18.5347314 C55.8607616,19.0236203 56,19.5085497 56,20.8458278 L56,26.6656409 C56,28.9114413 55.7215232,29.9527593 55.1986019,30.9305371 C54.6756806,31.9083149 53.9083149,32.6756806 52.9305371,33.1986019 C52.1710927,33.6047572 51.3733163,33.8634466 50.0026053,33.9587236 L50,34 C48.8954305,34 48,34.8954305 48,36 Z" id="Combined-Shape" fill="#000000"></path>
    </g>
</svg>