<?xml version="1.0" encoding="iso-8859-1"?>
<!-- Uploaded to: SVG Repo, www.svgrepo.com, Generator: SVG Repo Mixer Tools -->
<!DOCTYPE svg PUBLIC "-//W3C//DTD SVG 1.1//EN" "http://www.w3.org/Graphics/SVG/1.1/DTD/svg11.dtd">
<svg fill="#000000" height="800px" width="800px" version="1.1" id="Capa_1" xmlns="http://www.w3.org/2000/svg" xmlns:xlink="http://www.w3.org/1999/xlink" 
	 viewBox="0 0 487.435 487.435" xml:space="preserve">
<g>
	<path d="M186.516,278.534l-22.72-0.007l19.747-51.855l80.916,31.517c2.474,0.925,5.059,1.393,7.683,1.393c0,0,0,0,0.001,0
		c9.116,0,17.383-5.741,20.571-14.285c4.231-11.34-1.552-24.015-12.816-28.223c0,0-160.754-62.335-162.569-62.625
		c-2.188-0.746-4.494-1.154-6.847-1.154c-5.961,0-11.651,2.507-15.668,6.89l-80.859,73.097c-1.13,1.021-1.82,2.43-1.95,3.934
		c-0.024,0.121-0.051,0.24-0.068,0.362L0.23,323.515c-0.826,5.618,0.587,11.222,3.981,15.777c3.391,4.552,8.352,7.514,13.972,8.34
		c1.025,0.15,2.068,0.227,3.1,0.227c0,0,0,0,0,0c10.456,0,19.489-7.81,21.019-18.229l1.616-11.863
		c1.3,2.545,3.024,5.093,5.284,7.567c0.119,0.131,0.245,0.257,0.375,0.376l24.614,22.582l-50.868-0.013
		c-12.107,0-21.956,9.851-21.956,21.959c0.002,12.104,9.852,21.954,21.958,21.957h108.604c0,0-0.001,0,0,0c0.485,0-0.344,0.016,0,0
		c6.198-0.268,11.92-3.1,16.113-7.671c4.193-4.571,6.355-10.501,6.088-16.698c-0.267-6.199-2.933-11.923-7.523-16.134
		l-32.162-29.261l50.104,0.014l-0.02,47.818c-0.001,5.866,2.284,11.381,6.432,15.528c4.148,4.147,9.662,6.431,15.527,6.431h0.001
		c12.104-0.003,21.953-9.853,21.956-21.956c0,0,0.027-69.327,0.027-69.776C208.473,288.386,198.622,278.537,186.516,278.534z
		 M52.389,255.59l4.632-4.188l-6.373,16.967L52.389,255.59z"/>
	<path d="M322.475,386.416c-0.004-0.019-0.006-0.04-0.01-0.059c0,0-6.706-29.294-6.832-29.58
		c-4.328-12.768-40.624-13.16-44.995-13.16c-4.371,0-40.673,0.392-44.996,13.161c-0.126,0.287-6.83,29.578-6.83,29.578
		c-0.004,0.02-0.006,0.04-0.01,0.06c-0.009,0.043-0.014,0.087-0.022,0.13c-0.057,0.305-0.093,0.611-0.093,0.921
		c0,5.982,5.876,10.576,17.466,13.658c9.275,2.467,21.523,3.825,34.484,3.825c12.962,0,25.209-1.358,34.485-3.825
		c11.59-3.081,17.466-7.677,17.466-13.657c0-0.31-0.036-0.617-0.093-0.92C322.489,386.503,322.484,386.459,322.475,386.416z
		 M304.743,359.082c-4.172,2.324-15.889,5.455-34.104,5.455c-18.213,0-29.933-3.131-34.105-5.456
		c4.156-2.325,15.865-5.465,34.105-5.465C288.879,353.616,300.587,356.756,304.743,359.082z"/>
	<path d="M475.732,308.379c-11.79-19.141-30.883-33.279-52.784-39.22c-2.506-7.819-10.984-24.631-39.046-37.366l-65.76-30.105
		c-2.365-1.083-5.159-0.518-6.919,1.398c-1.759,1.918-2.082,4.75-0.799,7.014l7.539,13.31l-10.142-0.412
		c-2.395-0.086-4.599,1.227-5.641,3.374c-1.042,2.146-0.714,4.706,0.836,6.52l10.695,12.514c-4.313,7.434-3.987,16.827,0.942,23.958
		l-10.904,26.258c-0.643,1.549-0.609,3.296,0.095,4.818c0.704,1.522,2.013,2.682,3.61,3.194c5.19,1.669,10.492,2.515,15.757,2.515
		c14.213,0,27.177-6.158,35.899-16.772l3.702,3.412l0.114,51.571c-10.056,16.614-28.519,45.931-28.71,46.233
		c-1.164,1.849-1.232,4.185-0.176,6.098c1.056,1.913,3.068,3.101,5.253,3.101h18.066c2.028,0,3.918-1.025,5.026-2.723l29.035-44.523
		c-0.258,4.803,0.383,11.434,3.93,18.873c-9.434,2.558-19.605,8.961-19.605,22.373c0,3.313,2.686,6,6,6h66.036
		c0.07,0,0.141-0.001,0.211-0.004c10.083-0.354,30.86-7.901,37.331-33.927C490.109,346.605,486.703,326.191,475.732,308.379z"/>
	<path d="M198.678,172.394c24.788,0,44.955-20.166,44.955-44.954s-20.167-44.954-44.955-44.954
		c-24.787,0-44.953,20.166-44.953,44.954S173.891,172.394,198.678,172.394z"/>
</g>
</svg>